{
  "accessors": [
    {
      "bufferView": 2,
      "componentType": 5126,
      "count": 34933,
      "max": [
        2.5351312160491943,
        2.5351312160491943,
        1.833655834197998
      ],
      "min": [
        -2.5351312160491943,
        -2.5351312160491943,
        -0.6622515916824341
      ],
      "type": "VEC3"
    },
    {
      "bufferView": 2,
      "byteOffset": 419196,
      "componentType": 5126,
      "count": 34933,
      "max": [
        0.9999936819076538,
        0.9999937415122986,
        1.0
      ],
      "min": [
        -0.9999937415122986,
        -0.9999948740005493,
        -1.0
      ],
      "type": "VEC3"
    },
    {
      "bufferView": 1,
      "componentType": 5126,
      "count": 34933,
      "max": [
        0.9988876581192017,
        0.9998484253883362
      ],
      "min": [
        0.0001516750198788941,
        0.0001516750198788941
      ],
      "type": "VEC2"
    },
    {
      "bufferView": 1,
      "byteOffset": 279464,
      "componentType": 5126,
      "count": 34933,
      "max": [
        0.9988876581192017,
        0.9998484253883362
      ],
      "min": [
        0.0001516750198788941,
        0.0001516750198788941
      ],
      "type": "VEC2"
    },
    {
      "bufferView": 1,
      "byteOffset": 558928,
      "componentType": 5126,
      "count": 34933,
      "max": [
        0.9988876581192017,
        0.9998484253883362
      ],
      "min": [
        0.0001516750198788941,
        0.0001516750198788941
      ],
      "type": "VEC2"
    },
    {
      "bufferView": 2,
      "byteOffset": 838392,
      "componentType": 5126,
      "count": 34933,
      "max": [
        0.0,
        0.08987390995025635,
        0.3523440957069397
      ],
      "min": [
        0.0,
        -0.09910339117050171,
        -0.35346776247024536
      ],
      "type": "VEC3"
    },
    {
      "bufferView": 2,
      "byteOffset": 1257588,
      "componentType": 5126,
      "count": 34933,
      "max": [
        1.7471168041229248,
        1.9671285152435303,
        1.624589204788208
      ],
      "min": [
        -1.9972691535949707,
        -1.881356954574585,
        -1.702791452407837
      ],
      "type": "VEC3"
    },
    {
      "bufferView": 2,
      "byteOffset": 1676784,
      "componentType": 5126,
      "count": 34933,
      "max": [
        0.0,
        0.16861629486083984,
        0.5449360013008118
      ],
      "min": [
        0.0,
        -0.1795678734779358,
        -0.5477131605148315
      ],
      "type": "VEC3"
    },
    {
      "bufferView": 2,
      "byteOffset": 2095980,
      "componentType": 5126,
      "count": 34933,
      "max": [
        1.7416707277297974,
        1.9360451698303223,
        1.6272730827331543
      ],
      "min": [
        -1.9972374439239502,
        -1.8581452369689941,
        -1.6851845979690552
      ],
      "type": "VEC3"
    },
    {
      "bufferView": 0,
      "componentType": 5125,
      "count": 122160,
      "type": "SCALAR"
    },
    {
      "bufferView": 2,
      "byteOffset": 2515176,
      "componentType": 5126,
      "count": 1233,
      "max": [
        0.9964818358421326,
        0.9964819550514221,
        1.9846861362457275
      ],
      "min": [
        -0.9964815974235535,
        -0.9964818358421326,
        0.4655274748802185
      ],
      "type": "VEC3"
    },
    {
      "bufferView": 2,
      "byteOffset": 2529972,
      "componentType": 5126,
      "count": 1233,
      "max": [
        0.9993678331375122,
        0.999367892742157,
        1.0
      ],
      "min": [
        -0.9993678331375122,
        -0.9993678331375122,
        -0.2638184726238251
      ],
      "type": "VEC3"
    },
    {
      "bufferView": 1,
      "byteOffset": 838392,
      "componentType": 5126,
      "count": 1233,
      "max": [
        1.000000238418579,
        0.9648215770721436
      ],
      "min": [
        0.0,
        0.011740773916244507
      ],
      "type": "VEC2"
    },
    {
      "bufferView": 2,
      "byteOffset": 2544768,
      "componentType": 5126,
      "count": 1233,
      "max": [
        0.0,
        0.10841698944568634,
        0.03191173076629639
      ],
      "min": [
        0.0,
        -0.10841695964336395,
        -0.0389934778213501
      ],
      "type": "VEC3"
    },
    {
      "bufferView": 2,
      "byteOffset": 2559564,
      "componentType": 5126,
      "count": 1233,
      "max": [
        0.09095126390457153,
        0.06373488157987595,
        0.03908795118331909
      ],
      "min": [
        -0.09572843462228775,
        -0.06373406946659088,
        -0.0402485728263855
      ],
      "type": "VEC3"
    },
    {
      "bufferView": 2,
      "byteOffset": 2574360,
      "componentType": 5126,
      "count": 1233,
      "max": [
        0.0,
        0.17068544030189514,
        0.04797399044036865
      ],
      "min": [
        0.0,
        -0.17068547010421753,
        -0.06540882587432861
      ],
      "type": "VEC3"
    },
    {
      "bufferView": 2,
      "byteOffset": 2589156,
      "componentType": 5126,
      "count": 1233,
      "max": [
        0.14280062913894653,
        0.0709729865193367,
        0.058940380811691284
      ],
      "min": [
        -0.14279989898204803,
        -0.07332482933998108,
        -0.06431278586387634
      ],
      "type": "VEC3"
    },
    {
      "bufferView": 0,
      "byteOffset": 488640,
      "componentType": 5125,
      "count": 6720,
      "type": "SCALAR"
    },
    {
      "bufferView": 3,
      "componentType": 5126,
      "count": 238,
      "max": [
        4.958333492279053
      ],
      "min": [
        0.0
      ],
      "type": "SCALAR"
    },
    {
      "bufferView": 4,
      "componentType": 5126,
      "count": 238,
      "max": [
        40.22943115234375,
        120.34030151367188,
        0.0
      ],
      "min": [
        0.0,
        95.41971588134766,
        0.0
      ],
      "type": "VEC3"
    },
    {
      "bufferView": 3,
      "byteOffset": 952,
      "componentType": 5126,
      "count": 238,
      "max": [
        4.958333492279053
      ],
      "min": [
        0.0
      ],
      "type": "SCALAR"
    },
    {
      "bufferView": 5,
      "componentType": 5126,
      "count": 238,
      "max": [
        -0.7069422006607056,
        0.013333010487258434,
        0.015254124067723751,
        0.7071068286895752
      ],
      "min": [
        -0.7071067690849304,
        -0.015254123136401176,
        -0.013333011418581009,
        0.7069422602653503
      ],
      "type": "VEC4"
    },
    {
      "bufferView": 3,
      "byteOffset": 1904,
      "componentType": 5126,
      "count": 150,
      "max": [
        4.9666666984558105
      ],
      "min": [
        0.0
      ],
      "type": "SCALAR"
    },
    {
      "bufferView": 3,
      "byteOffset": 2504,
      "componentType": 5126,
      "count": 300,
      "max": [
        0.632631242275238
      ],
      "min": [
        0.11473718285560608
      ],
      "type": "SCALAR"
    },
    {
      "bufferView": 3,
      "byteOffset": 3704,
      "componentType": 5126,
      "count": 150,
      "max": [
        4.9666666984558105
      ],
      "min": [
        0.0
      ],
      "type": "SCALAR"
    },
    {
      "bufferView": 3,
      "byteOffset": 4304,
      "componentType": 5126,
      "count": 300,
      "max": [
        0.632631242275238
      ],
      "min": [
        0.11473718285560608
      ],
      "type": "SCALAR"
    }
  ],
  "animations": [
    {
      "channels": [
        {
          "sampler": 0,
          "target": {
            "node": 4,
            "path": "translation"
          }
        },
        {
          "sampler": 1,
          "target": {
            "node": 4,
            "path": "rotation"
          }
        },
        {
          "sampler": 2,
          "target": {
            "node": 5,
            "path": "weights"
          }
        },
        {
          "sampler": 3,
          "target": {
            "node": 6,
            "path": "weights"
          }
        }
      ],
      "name": "Hovering",
      "samplers": [
        {
          "input": 18,
          "interpolation": "LINEAR",
          "output": 19
        },
        {
          "input": 20,
          "interpolation": "LINEAR",
          "output": 21
        },
        {
          "input": 22,
          "interpolation": "LINEAR",
          "output": 23
        },
        {
          "input": 24,
          "interpolation": "LINEAR",
          "output": 25
        }
      ]
    }
  ],
  "asset": {
    "extras": {
      "author": "Duznot (https://sketchfab.com/duz_vr)",
      "license": "CC-BY-4.0 (http://creativecommons.org/licenses/by/4.0/)",
      "source": "https://sketchfab.com/3d-models/ufo-f8a9a4260e2f4576a8214af5e7c64885",
      "title": "UFO"
    },
    "generator": "Sketchfab-13.74.0",
    "version": "2.0"
  },
  "bufferViews": [
    {
      "buffer": 0,
      "byteLength": 515520,
      "name": "floatBufferViews",
      "target": 34963
    },
    {
      "buffer": 0,
      "byteLength": 848256,
      "byteOffset": 515520,
      "byteStride": 8,
      "name": "floatBufferViews",
      "target": 34962
    },
    {
      "buffer": 0,
      "byteLength": 2603952,
      "byteOffset": 1363776,
      "byteStride": 12,
      "name": "floatBufferViews",
      "target": 34962
    },
    {
      "buffer": 0,
      "byteLength": 5504,
      "byteOffset": 3967728,
      "name": "floatBufferViews"
    },
    {
      "buffer": 0,
      "byteLength": 2856,
      "byteOffset": 3973232,
      "byteStride": 12,
      "name": "floatBufferViews"
    },
    {
      "buffer": 0,
      "byteLength": 3808,
      "byteOffset": 3976088,
      "byteStride": 16,
      "name": "floatBufferViews"
    }
  ],
  "buffers": [
    {
      "byteLength": 3979896,
      "uri": "scene.bin"
    }
  ],
  "extensionsUsed": [
    "KHR_materials_clearcoat",
    "KHR_materials_transmission"
  ],
  "images": [
    {
      "uri": "textures/Saucer_baseColor.png"
    },
    {
      "uri": "textures/Saucer_metallicRoughness.png"
    },
    {
      "uri": "textures/Saucer_emissive.png"
    }
  ],
  "materials": [
    {
      "doubleSided": true,
      "emissiveFactor": [
        1.0,
        1.0,
        1.0
      ],
      "emissiveTexture": {
        "index": 2
      },
      "extensions": {
        "KHR_materials_clearcoat": {
          "clearcoatFactor": 0.05509485760340518,
          "clearcoatRoughnessFactor": 0.036205192139380546
        }
      },
      "name": "Saucer",
      "pbrMetallicRoughness": {
        "baseColorTexture": {
          "index": 0
        },
        "metallicRoughnessTexture": {
          "index": 1
        }
      }
    },
    {
      "alphaMode": "BLEND",
      "doubleSided": true,
      "extensions": {
        "KHR_materials_transmission": {
          "transmissionFactor": 0.9637948078606194
        }
      },
      "name": "Glass",
      "pbrMetallicRoughness": {
        "baseColorFactor": [
          0.8,
          0.8,
          0.8,
          0.25
        ],
        "roughnessFactor": 0.16413230321691008
      }
    }
  ],
  "meshes": [
    {
      "name": "0",
      "primitives": [
        {
          "attributes": {
            "NORMAL": 1,
            "POSITION": 0,
            "TEXCOORD_0": 2,
            "TEXCOORD_1": 3,
            "TEXCOORD_2": 4
          },
          "indices": 9,
          "material": 0,
          "mode": 4,
          "targets": [
            {
              "NORMAL": 6,
              "POSITION": 5
            },
            {
              "NORMAL": 8,
              "POSITION": 7
            }
          ]
        }
      ],
      "weights": [
        0.0,
        0.0
      ]
    },
    {
      "name": "1",
      "primitives": [
        {
          "attributes": {
            "NORMAL": 11,
            "POSITION": 10,
            "TEXCOORD_0": 12
          },
          "indices": 17,
          "material": 1,
          "mode": 4,
          "targets": [
            {
              "NORMAL": 14,
              "POSITION": 13
            },
            {
              "NORMAL": 16,
              "POSITION": 15
            }
          ]
        }
      ],
      "weights": [
        0.0,
        0.0
      ]
    }
  ],
  "nodes": [
    {
      "children": [
        1
      ],
      "matrix": [
        1.0,
        0.0,
        0.0,
        0.0,
        0.0,
        2.220446049250313e-16,
        -1.0,
        0.0,
        0.0,
        1.0,
        2.220446049250313e-16,
        0.0,
        0.0,
        0.0,
        0.0,
        1.0
      ],
      "name": "Sketchfab_model"
    },
    {
      "children": [
        2
      ],
      "matrix": [
        0.009999999776482582,
        0.0,
        0.0,
        0.0,
        0.0,
        0.0,
        0.009999999776482582,
        0.0,
        0.0,
        -0.009999999776482582,
        0.0,
        0.0,
        0.0,
        0.0,
        0.0,
        1.0
      ],
      "name": "Spaceship_baked.fbx"
    },
    {
      "children": [
        3
      ],
      "name": "Object_2"
    },
    {
      "children": [
        4
      ],
      "name": "RootNode"
    },
    {
      "children": [
        5,
        6
      ],
      "name": "Saucer",
      "rotation": [
        -0.7071066498756409,
        0.0004215806839056313,
        -0.00042158071300946176,
        0.7071067094802856
      ],
      "scale": [
        100.00000762939453,
        100.0,
        100.00000762939453
      ],
      "translation": [
        0.0,
        120.42774963378906,
        0.0
      ]
    },
    {
      "mesh": 0,
      "name": "0"
    },
    {
      "mesh": 1,
      "name": "1"
    }
  ],
  "samplers": [
    {
      "magFilter": 9729,
      "minFilter": 9987,
      "wrapS": 10497,
      "wrapT": 10497
    }
  ],
  "scene": 0,
  "scenes": [
    {
      "name": "Sketchfab_Scene",
      "nodes": [
        0
      ]
    }
  ],
  "textures": [
    {
      "sampler": 0,
      "source": 0
    },
    {
      "sampler": 0,
      "source": 1
    },
    {
      "sampler": 0,
      "source": 2
    }
  ]
}
